<mxfile host="app.diagrams.net" modified="2024-02-26T16:42:29.074Z" agent="Mozilla/5.0 (X11; Ubuntu; Linux x86_64; rv:123.0) Gecko/20100101 Firefox/123.0" version="23.1.6" etag="peT9XIGw5A3einyHDh6m" type="github">
  <diagram name="Page-1" id="7vTl9IVz6bpevumC0nPD">
    <mxGraphModel>
      <root>
        <mxCell id="0" />
        <mxCell id="1" parent="0" />
      </root>
    </mxGraphModel>
  </diagram>
</mxfile>
